<svg xmlns="http://www.w3.org/2000/svg" class="icon icon-tabler icon-tabler-ball-volleyball" width="24" height="24" viewBox="0 0 24 24" stroke-width="2" stroke="currentColor" fill="none" stroke-linecap="round" stroke-linejoin="round">
  <path stroke="param(outline)" d="M0 0h24v24H0z" fill="param(fill)" stroke-width="param(outline-width) 0" fill-opacity="param(fill-opacity)" stroke-opacity="param(outline-opacity)" />
  <circle cx="12" cy="12" r="9" fill="param(fill)" stroke="param(outline)" stroke-width="param(outline-width) 0" fill-opacity="param(fill-opacity)" stroke-opacity="param(outline-opacity)" />
  
  <path d="M12 12a8 8 0 0 0 8 4M7.5 13.5a12 12 0 0 0 8.5 6.5" fill="param(fill)" stroke="param(outline)" stroke-width="param(outline-width) 0" fill-opacity="param(fill-opacity)" stroke-opacity="param(outline-opacity)" />
  
  <path d="M12 12a8 8 0 0 0 8 4M7.5 13.5a12 12 0 0 0 8.5 6.5" transform="rotate(120 12 12)" fill="param(fill)" stroke="param(outline)" stroke-width="param(outline-width) 0" fill-opacity="param(fill-opacity)" stroke-opacity="param(outline-opacity)" />
  
  <path d="M12 12a8 8 0 0 0 8 4M7.5 13.5a12 12 0 0 0 8.5 6.5" transform="rotate(240 12 12)" fill="param(fill)" stroke="param(outline)" stroke-width="param(outline-width) 0" fill-opacity="param(fill-opacity)" stroke-opacity="param(outline-opacity)" />
  
</svg>