<svg xmlns="http://www.w3.org/2000/svg" class="icon icon-tabler icon-tabler-braces" width="24" height="24" viewBox="0 0 24 24" stroke-width="2" stroke="currentColor" fill="none" stroke-linecap="round" stroke-linejoin="round">
  <path stroke="param(outline)" d="M0 0h24v24H0z" fill="param(fill)" stroke-width="param(outline-width) 0" fill-opacity="param(fill-opacity)" stroke-opacity="param(outline-opacity)" />
  <path d="M7 4a2 2 0 0 0 -2 2v3a2 3 0 0 1 -2 3a2 3 0 0 1 2 3v3a2 2 0 0 0 2 2" fill="param(fill)" stroke="param(outline)" stroke-width="param(outline-width) 0" fill-opacity="param(fill-opacity)" stroke-opacity="param(outline-opacity)" />
  <path d="M17 4a2 2 0 0 1 2 2v3a2 3 0 0 0 2 3a2 3 0 0 0 -2 3v3a2 2 0 0 1 -2 2" fill="param(fill)" stroke="param(outline)" stroke-width="param(outline-width) 0" fill-opacity="param(fill-opacity)" stroke-opacity="param(outline-opacity)" />
</svg>