<svg xmlns="http://www.w3.org/2000/svg" class="icon icon-tabler icon-tabler-hexagon" width="24" height="24" viewBox="0 0 24 24" stroke-width="2" stroke="currentColor" fill="none" stroke-linecap="round" stroke-linejoin="round">
  <path stroke="param(outline)" d="M0 0h24v24H0z" fill="param(fill)" stroke-width="param(outline-width) 0" fill-opacity="param(fill-opacity)" stroke-opacity="param(outline-opacity)" />
  <path d="M12.971 3.54l6 3.333A2 2 0 0 1 20 8.62v6.536a2 2 0 0 1 -1.029 1.748l-6 3.333a2 2 0 0 1 -1.942 0l-6-3.333A2 2 0 0 1 4 15.157V8.62a2 2 0 0 1 1.029 -1.748l6-3.333a2 2 0 0 1 1.942 0z" fill="param(fill)" stroke="param(outline)" stroke-width="param(outline-width) 0" fill-opacity="param(fill-opacity)" stroke-opacity="param(outline-opacity)" />
</svg>