<svg xmlns="http://www.w3.org/2000/svg" class="icon icon-tabler icon-tabler-snowflake" width="24" height="24" viewBox="0 0 24 24" stroke-width="2" stroke="currentColor" fill="none" stroke-linecap="round" stroke-linejoin="round">
  <path stroke="param(outline)" d="M0 0h24v24H0z" fill="param(fill)" stroke-width="param(outline-width) 0" fill-opacity="param(fill-opacity)" stroke-opacity="param(outline-opacity)" />
  
  <path d="M10 4l2 1l2 -1m-2 -2v6.5l3 1.72" fill="param(fill)" stroke="param(outline)" stroke-width="param(outline-width) 0" fill-opacity="param(fill-opacity)" stroke-opacity="param(outline-opacity)" />
  
  <path d="M10 4l2 1l2 -1m-2 -2v6.5l3 1.72" transform="rotate(60 12 12)" fill="param(fill)" stroke="param(outline)" stroke-width="param(outline-width) 0" fill-opacity="param(fill-opacity)" stroke-opacity="param(outline-opacity)" />
  
  <path d="M10 4l2 1l2 -1m-2 -2v6.5l3 1.72" transform="rotate(120 12 12)" fill="param(fill)" stroke="param(outline)" stroke-width="param(outline-width) 0" fill-opacity="param(fill-opacity)" stroke-opacity="param(outline-opacity)" />
  
  <path d="M10 4l2 1l2 -1m-2 -2v6.5l3 1.72" transform="rotate(180 12 12)" fill="param(fill)" stroke="param(outline)" stroke-width="param(outline-width) 0" fill-opacity="param(fill-opacity)" stroke-opacity="param(outline-opacity)" />
  
  <path d="M10 4l2 1l2 -1m-2 -2v6.5l3 1.72" transform="rotate(240 12 12)" fill="param(fill)" stroke="param(outline)" stroke-width="param(outline-width) 0" fill-opacity="param(fill-opacity)" stroke-opacity="param(outline-opacity)" />
  
  <path d="M10 4l2 1l2 -1m-2 -2v6.5l3 1.72" transform="rotate(300 12 12)" fill="param(fill)" stroke="param(outline)" stroke-width="param(outline-width) 0" fill-opacity="param(fill-opacity)" stroke-opacity="param(outline-opacity)" />
  
</svg>