<svg xmlns="http://www.w3.org/2000/svg" class="icon icon-tabler icon-tabler-virus" width="24" height="24" viewBox="0 0 24 24" stroke-width="2" stroke="currentColor" fill="none" stroke-linecap="round" stroke-linejoin="round">
  <path stroke="param(outline)" d="M0 0h24v24H0z" fill="param(fill)" stroke-width="param(outline-width) 0" fill-opacity="param(fill-opacity)" stroke-opacity="param(outline-opacity)" />
  <circle cx="12" cy="12" r="5" fill="param(fill)" stroke="param(outline)" stroke-width="param(outline-width) 0" fill-opacity="param(fill-opacity)" stroke-opacity="param(outline-opacity)" />
  <path d="M12 7v-4m-1 0h2" fill="param(fill)" stroke="param(outline)" stroke-width="param(outline-width) 0" fill-opacity="param(fill-opacity)" stroke-opacity="param(outline-opacity)" />
  <path d="M12 7v-4m-1 0h2" transform="rotate(45 12 12)" fill="param(fill)" stroke="param(outline)" stroke-width="param(outline-width) 0" fill-opacity="param(fill-opacity)" stroke-opacity="param(outline-opacity)" />
  <path d="M12 7v-4m-1 0h2" transform="rotate(90 12 12)" fill="param(fill)" stroke="param(outline)" stroke-width="param(outline-width) 0" fill-opacity="param(fill-opacity)" stroke-opacity="param(outline-opacity)" />
  <path d="M12 7v-4m-1 0h2" transform="rotate(135 12 12)" fill="param(fill)" stroke="param(outline)" stroke-width="param(outline-width) 0" fill-opacity="param(fill-opacity)" stroke-opacity="param(outline-opacity)" />
  <path d="M12 7v-4m-1 0h2" transform="rotate(180 12 12)" fill="param(fill)" stroke="param(outline)" stroke-width="param(outline-width) 0" fill-opacity="param(fill-opacity)" stroke-opacity="param(outline-opacity)" />
  <path d="M12 7v-4m-1 0h2" transform="rotate(225 12 12)" fill="param(fill)" stroke="param(outline)" stroke-width="param(outline-width) 0" fill-opacity="param(fill-opacity)" stroke-opacity="param(outline-opacity)" />
  <path d="M12 7v-4m-1 0h2" transform="rotate(270 12 12)" fill="param(fill)" stroke="param(outline)" stroke-width="param(outline-width) 0" fill-opacity="param(fill-opacity)" stroke-opacity="param(outline-opacity)" />
  <path d="M12 7v-4m-1 0h2" transform="rotate(315 12 12)" fill="param(fill)" stroke="param(outline)" stroke-width="param(outline-width) 0" fill-opacity="param(fill-opacity)" stroke-opacity="param(outline-opacity)" />
</svg>