<svg xmlns="http://www.w3.org/2000/svg" width="1536" height="1536">
    <path d="M595 960c0 8-4 17-10 23l-466 466c-6 6-15 10-23 10s-17-4-23-10l-50-50c-6-6-10-15-10-23s4-17 10-23l393-393L23 567c-6-6-10-15-10-23s4-17 10-23l50-50c6-6 15-10 23-10s17 4 23 10l466 466c6 6 10 15 10 23zm384 0c0 8-4 17-10 23l-466 466c-6 6-15 10-23 10s-17-4-23-10l-50-50c-6-6-10-15-10-23s4-17 10-23l393-393-393-393c-6-6-10-15-10-23s4-17 10-23l50-50c6-6 15-10 23-10s17 4 23 10l466 466c6 6 10 15 10 23z" fill="param(fill)" stroke="param(outline)" stroke-width="param(outline-width) 0" fill-opacity="param(fill-opacity)" stroke-opacity="param(outline-opacity)" />
</svg>