<svg xmlns="http://www.w3.org/2000/svg" width="1536" height="1536">
    <path d="M704 320c0 35-29 64-64 64H512v1024h128c35 0 64 29 64 64 0 17-7 33-19 45l-256 256c-12 12-28 19-45 19s-33-7-45-19L83 1517c-12-12-19-28-19-45 0-35 29-64 64-64h128V384H128c-35 0-64-29-64-64 0-17 7-33 19-45L339 19c12-12 28-19 45-19s33 7 45 19l256 256c12 12 19 28 19 45z" fill="param(fill)" stroke="param(outline)" stroke-width="param(outline-width) 0" fill-opacity="param(fill-opacity)" stroke-opacity="param(outline-opacity)" />
</svg>