<svg xmlns="http://www.w3.org/2000/svg" width="1536" height="1536">
    <path d="M1536 1344v128c0 35-29 64-64 64H64c-35 0-64-29-64-64v-128c0-35 29-64 64-64h1408c35 0 64 29 64 64zm0-512v128c0 35-29 64-64 64H64c-35 0-64-29-64-64V832c0-35 29-64 64-64h1408c35 0 64 29 64 64zm0-512v128c0 35-29 64-64 64H64c-35 0-64-29-64-64V320c0-35 29-64 64-64h1408c35 0 64 29 64 64z" fill="param(fill)" stroke="param(outline)" stroke-width="param(outline-width) 0" fill-opacity="param(fill-opacity)" stroke-opacity="param(outline-opacity)" />
</svg>