<svg xmlns="http://www.w3.org/2000/svg" width="1536" height="1536">
    <path d="M1171 813l-422 422c-25 25-65 25-90 0L365 941c-25-25-25-65 0-90l102-102c25-25 65-25 90 0l147 147 275-275c25-25 65-25 90 0l102 102c25 25 25 65 0 90zm141 83c0-300-244-544-544-544S224 596 224 896s244 544 544 544 544-244 544-544zm224 0c0 424-344 768-768 768S0 1320 0 896s344-768 768-768 768 344 768 768z" fill="param(fill)" stroke="param(outline)" stroke-width="param(outline-width) 0" fill-opacity="param(fill-opacity)" stroke-opacity="param(outline-opacity)" />
</svg>