<svg xmlns="http://www.w3.org/2000/svg" width="1536" height="1536">
    <path d="M685 1299l614-614c25-25 25-65 0-90l-102-102c-25-25-65-25-90 0L640 960 429 749c-25-25-65-25-90 0L237 851c-25 25-25 65 0 90l358 358c25 25 65 25 90 0zm851-883v960c0 159-129 288-288 288H288c-159 0-288-129-288-288V416c0-159 129-288 288-288h960c159 0 288 129 288 288z" fill="param(fill)" stroke="param(outline)" stroke-width="param(outline-width) 0" fill-opacity="param(fill-opacity)" stroke-opacity="param(outline-opacity)" />
</svg>