<svg xmlns="http://www.w3.org/2000/svg" width="1536" height="1536">
    <path d="M384 736v192c0 53-43 96-96 96H96c-53 0-96-43-96-96V736c0-53 43-96 96-96h192c53 0 96 43 96 96zm512 0v192c0 53-43 96-96 96H608c-53 0-96-43-96-96V736c0-53 43-96 96-96h192c53 0 96 43 96 96zm512 0v192c0 53-43 96-96 96h-192c-53 0-96-43-96-96V736c0-53 43-96 96-96h192c53 0 96 43 96 96z" fill="param(fill)" stroke="param(outline)" stroke-width="param(outline-width) 0" fill-opacity="param(fill-opacity)" stroke-opacity="param(outline-opacity)" />
</svg>