<svg xmlns="http://www.w3.org/2000/svg" width="1536" height="1536">
    <path d="M640 1344v128c0 35-29 64-64 64H64c-35 0-64-29-64-64v-128c0-35 29-64 64-64h64V896H64c-35 0-64-29-64-64V704c0-35 29-64 64-64h384c35 0 64 29 64 64v576h64c35 0 64 29 64 64zM512 192v192c0 35-29 64-64 64H192c-35 0-64-29-64-64V192c0-35 29-64 64-64h256c35 0 64 29 64 64z" fill="param(fill)" stroke="param(outline)" stroke-width="param(outline-width) 0" fill-opacity="param(fill-opacity)" stroke-opacity="param(outline-opacity)" />
</svg>