<svg xmlns="http://www.w3.org/2000/svg" width="1536" height="1536">
    <path d="M256 1312v192c0 17-15 32-32 32H32c-17 0-32-15-32-32v-192c0-17 15-32 32-32h192c17 0 32 15 32 32zm0-384v192c0 17-15 32-32 32H32c-17 0-32-15-32-32V928c0-17 15-32 32-32h192c17 0 32 15 32 32zm0-384v192c0 17-15 32-32 32H32c-17 0-32-15-32-32V544c0-17 15-32 32-32h192c17 0 32 15 32 32zm1536 768v192c0 17-15 32-32 32H416c-17 0-32-15-32-32v-192c0-17 15-32 32-32h1344c17 0 32 15 32 32zM256 160v192c0 17-15 32-32 32H32c-17 0-32-15-32-32V160c0-17 15-32 32-32h192c17 0 32 15 32 32zm1536 768v192c0 17-15 32-32 32H416c-17 0-32-15-32-32V928c0-17 15-32 32-32h1344c17 0 32 15 32 32zm0-384v192c0 17-15 32-32 32H416c-17 0-32-15-32-32V544c0-17 15-32 32-32h1344c17 0 32 15 32 32zm0-384v192c0 17-15 32-32 32H416c-17 0-32-15-32-32V160c0-17 15-32 32-32h1344c17 0 32 15 32 32z" fill="param(fill)" stroke="param(outline)" stroke-width="param(outline-width) 0" fill-opacity="param(fill-opacity)" stroke-opacity="param(outline-opacity)" />
</svg>