<svg xmlns="http://www.w3.org/2000/svg" width="1536" height="1536">
    <path d="M1152 1088c0 35-29 64-64 64H448c-35 0-64-29-64-64s29-64 64-64h640c35 0 64 29 64 64zM640 640c0 71-57 128-128 128s-128-57-128-128 57-128 128-128 128 57 128 128zm512 0c0 71-57 128-128 128s-128-57-128-128 57-128 128-128 128 57 128 128zm256 256c0-353-287-640-640-640S128 543 128 896s287 640 640 640 640-287 640-640zm128 0c0 424-344 768-768 768S0 1320 0 896s344-768 768-768 768 344 768 768z" fill="param(fill)" stroke="param(outline)" stroke-width="param(outline-width) 0" fill-opacity="param(fill-opacity)" stroke-opacity="param(outline-opacity)" />
</svg>