<svg xmlns="http://www.w3.org/2000/svg" width="1536" height="1536">
    <path d="M704 1184V608c0-18-14-32-32-32H416c-18 0-32 14-32 32v576c0 18 14 32 32 32h256c18 0 32-14 32-32zm448 0V608c0-18-14-32-32-32H864c-18 0-32 14-32 32v576c0 18 14 32 32 32h256c18 0 32-14 32-32zm384-288c0 424-344 768-768 768S0 1320 0 896s344-768 768-768 768 344 768 768z" fill="param(fill)" stroke="param(outline)" stroke-width="param(outline-width) 0" fill-opacity="param(fill-opacity)" stroke-opacity="param(outline-opacity)" />
</svg>