<svg xmlns="http://www.w3.org/2000/svg" viewBox="0 0 24 24"><path d="M12,6a.99974.99974,0,0,1,1,1v4h2a1,1,0,0,1,0,2H12a.99974.99974,0,0,1-1-1V7A.99974.99974,0,0,1,12,6Z" fill="param(fill)" stroke="param(outline)" stroke-width="param(outline-width) 0" fill-opacity="param(fill-opacity)" stroke-opacity="param(outline-opacity)" /><path d="M2,12A10,10,0,1,0,12,2,10,10,0,0,0,2,12Zm9-5a1,1,0,0,1,2,0v4h2a1,1,0,0,1,0,2H12a.99974.99974,0,0,1-1-1Z" fill="param(fill)" stroke="param(outline)" stroke-width="param(outline-width) 0" fill-opacity="param(fill-opacity)" stroke-opacity="param(outline-opacity)" /></svg>