<svg xmlns="http://www.w3.org/2000/svg" viewBox="0 0 24 24"><path d="M21 8H13a1 1 0 0 1 0-2h8a1 1 0 0 1 0 2zM21 12H13a1 1 0 0 1 0-2h8a1 1 0 0 1 0 2z" fill="param(fill)" stroke="param(outline)" stroke-width="param(outline-width) 0" fill-opacity="param(fill-opacity)" stroke-opacity="param(outline-opacity)" /><rect width="8" height="8" x="2" y="4" rx="1" fill="param(fill)" stroke="param(outline)" stroke-width="param(outline-width) 0" fill-opacity="param(fill-opacity)" stroke-opacity="param(outline-opacity)" /><path d="M21 16H3a1 1 0 0 1 0-2H21a1 1 0 0 1 0 2zM13 20H3a1 1 0 0 1 0-2H13a1 1 0 0 1 0 2z" fill="param(fill)" stroke="param(outline)" stroke-width="param(outline-width) 0" fill-opacity="param(fill-opacity)" stroke-opacity="param(outline-opacity)" /></svg>