<svg xmlns="http://www.w3.org/2000/svg" viewBox="0 0 24 24"><path d="M17,13H7a1,1,0,0,1,0-2H17a1,1,0,0,1,0,2Z" fill="param(fill)" stroke="param(outline)" stroke-width="param(outline-width) 0" fill-opacity="param(fill-opacity)" stroke-opacity="param(outline-opacity)" /><path d="M21,2H3A.99974.99974,0,0,0,2,3V21a.99974.99974,0,0,0,1,1H21a.99974.99974,0,0,0,1-1V3A.99974.99974,0,0,0,21,2ZM17,13H7a1,1,0,0,1,0-2H17a1,1,0,0,1,0,2Z" fill="param(fill)" stroke="param(outline)" stroke-width="param(outline-width) 0" fill-opacity="param(fill-opacity)" stroke-opacity="param(outline-opacity)" /></svg>