<svg xmlns="http://www.w3.org/2000/svg" viewBox="0 0 24 24"><path d="M5 22a.99974.99974 0 0 1-1-1V19a1 1 0 0 1 2 0v2A.99974.99974 0 0 1 5 22zM10 22a.99974.99974 0 0 1-1-1V15a1 1 0 0 1 2 0v6A.99974.99974 0 0 1 10 22zM15 22a.99974.99974 0 0 1-1-1V10a1 1 0 0 1 2 0V21A.99974.99974 0 0 1 15 22zM20 22a.99974.99974 0 0 1-1-1V3a1 1 0 0 1 2 0V21A.99974.99974 0 0 1 20 22z" fill="param(fill)" stroke="param(outline)" stroke-width="param(outline-width) 0" fill-opacity="param(fill-opacity)" stroke-opacity="param(outline-opacity)" /></svg>