<svg xmlns="http://www.w3.org/2000/svg" viewBox="0 0 24 24"><path d="M6,23H2a.99974.99974,0,0,1-1-1V16a.99974.99974,0,0,1,1-1H6a.99974.99974,0,0,1,1,1v6A.99974.99974,0,0,1,6,23Z" fill="param(fill)" stroke="param(outline)" stroke-width="param(outline-width) 0" fill-opacity="param(fill-opacity)" stroke-opacity="param(outline-opacity)" /><path d="M14,23H10a.99974.99974,0,0,1-1-1V10a.99974.99974,0,0,1,1-1h4a.99974.99974,0,0,1,1,1V22A.99974.99974,0,0,1,14,23Z" fill="param(fill)" stroke="param(outline)" stroke-width="param(outline-width) 0" fill-opacity="param(fill-opacity)" stroke-opacity="param(outline-opacity)" /><path d="M22,23H18a.99974.99974,0,0,1-1-1V2a.99974.99974,0,0,1,1-1h4a.99974.99974,0,0,1,1,1V22A.99974.99974,0,0,1,22,23Z" fill="param(fill)" stroke="param(outline)" stroke-width="param(outline-width) 0" fill-opacity="param(fill-opacity)" stroke-opacity="param(outline-opacity)" /></svg>