<svg xmlns="http://www.w3.org/2000/svg" enable-background="new 0 0 24 24" viewBox="0 0 24 24"><rect width="6" height="12" x="9" y="10" fill="param(fill)" stroke="param(outline)" stroke-width="param(outline-width) 0" fill-opacity="param(fill-opacity)" stroke-opacity="param(outline-opacity)" /><path d="M2,10v11c0,0.55228,0.44772,1,1,1h4V10H2z" fill="param(fill)" stroke="param(outline)" stroke-width="param(outline-width) 0" fill-opacity="param(fill-opacity)" stroke-opacity="param(outline-opacity)" /><polygon points="22 8 2 8 2 10 7 10 7 22 9 22 9 10 15 10 15 22 17 22 17 10 22 10" fill="param(fill)" stroke="param(outline)" stroke-width="param(outline-width) 0" fill-opacity="param(fill-opacity)" stroke-opacity="param(outline-opacity)" /><path d="M17,10v12h4c0.55228,0,1-0.44772,1-1V10H17z" fill="param(fill)" stroke="param(outline)" stroke-width="param(outline-width) 0" fill-opacity="param(fill-opacity)" stroke-opacity="param(outline-opacity)" /><path d="M3,2h18c0.55228,0,1,0.44772,1,1v5l0,0H2l0,0V3C2,2.44772,2.44772,2,3,2z" fill="param(fill)" stroke="param(outline)" stroke-width="param(outline-width) 0" fill-opacity="param(fill-opacity)" stroke-opacity="param(outline-opacity)" /></svg>