<svg xmlns="http://www.w3.org/2000/svg" xmlns:ns1="http://www.w3.org/1999/xlink" width="301" height="151" viewBox="0 0 301 151">
  <defs>
    <path id="a" d="M.5.5h150v75H.5z" fill="param(fill)" stroke="param(outline)" stroke-width="param(outline-width) 0" fill-opacity="param(fill-opacity)" stroke-opacity="param(outline-opacity)" />
    <path id="c" d="M75.5 38h75v37.5L75.5 38zm0 0v37.5H.5l75-37.5zm0 0H.5V.5l75 37.5zm0 0V.5h75L75.5 38z" fill="param(fill)" stroke="param(outline)" stroke-width="param(outline-width) 0" fill-opacity="param(fill-opacity)" stroke-opacity="param(outline-opacity)" />
  </defs>
  <g fill="none" fill-rule="evenodd">
    <path fill="param(fill)" fill-rule="nonzero" d="M.5.5h300v150H.5z" stroke="param(outline)" stroke-width="param(outline-width) 0" fill-opacity="param(fill-opacity)" stroke-opacity="param(outline-opacity)" />
    <path fill="param(fill)" fill-rule="nonzero" d="M.5.5h150v75H.5z" stroke="param(outline)" stroke-width="param(outline-width) 0" fill-opacity="param(fill-opacity)" stroke-opacity="param(outline-opacity)" />
    <mask id="b" fill="#fff">
      <use ns1:href="#a" />
    </mask>
    <path stroke="param(outline)" stroke-width="param(outline-width) 0" d="M.5.5l150 75m0-75l-150 75" mask="url(#b)" fill="param(fill)" fill-opacity="param(fill-opacity)" stroke-opacity="param(outline-opacity)" />
    <mask id="d" fill="#fff">
      <use ns1:href="#c" />
    </mask>
    <path stroke="param(outline)" stroke-width="param(outline-width) 0" d="M.5.5l150 75m0-75l-150 75" mask="url(#d)" fill="param(fill)" fill-opacity="param(fill-opacity)" stroke-opacity="param(outline-opacity)" />
    <path stroke="param(outline)" stroke-width="param(outline-width) 0" d="M75.5.5v75M.5 38h150" fill="param(fill)" fill-opacity="param(fill-opacity)" stroke-opacity="param(outline-opacity)" />
    <path stroke="param(outline)" stroke-width="param(outline-width) 0" d="M75.5.5v75M.5 38h150" fill="param(fill)" fill-opacity="param(fill-opacity)" stroke-opacity="param(outline-opacity)" />
    <path fill="param(fill)" fill-rule="nonzero" d="M273.409 18.51l2.8-8.659 2.799 8.659 9.084-.006-7.354 5.343 2.813 8.654-7.343-5.356-7.345 5.355 2.815-8.654-7.352-5.344zM246.81 94.15l2.8-8.659 2.8 8.659 9.083-.007-7.353 5.344 2.813 8.654-7.344-5.356-7.345 5.355 2.815-8.654-7.352-5.345zM273.409 77.027l2.8-8.659 2.799 8.659 9.084-.006-7.354 5.343 2.813 8.654-7.343-5.356-7.345 5.355 2.815-8.654-7.352-5.345zM159.034 131.887l2.801-8.659 2.799 8.659 9.083-.007-7.353 5.344 2.813 8.654-7.344-5.356-7.344 5.355 2.815-8.654-7.353-5.345zM200.307 99.995l-2.8 8.658-2.8-8.659-9.083.007 7.353-5.343-2.813-8.655 7.344 5.357 7.344-5.356-2.814 8.654 7.352 5.345zM231.808 56.429l-2.8 8.659-2.799-8.659-9.084.006 7.354-5.343-2.813-8.654 7.343 5.356 7.345-5.355-2.815 8.654 7.352 5.344zM258.283 47.381l-2.801 8.658-2.799-8.658-9.083.006 7.353-5.343-2.813-8.655 7.344 5.357 7.344-5.355-2.815 8.653 7.353 5.345zM231.808 122.783l-2.8 8.658-2.799-8.659-9.084.007 7.354-5.343-2.813-8.655 7.343 5.357 7.345-5.356-2.815 8.654 7.352 5.345zM200.307 130.491l-2.8 8.658-2.8-8.659-9.083.007 7.353-5.344-2.813-8.654 7.344 5.356 7.344-5.355-2.814 8.654 7.352 5.345z" stroke="param(outline)" stroke-width="param(outline-width) 0" fill-opacity="param(fill-opacity)" stroke-opacity="param(outline-opacity)" />
  </g>
</svg>