<svg xmlns="http://www.w3.org/2000/svg" width="301" height="181" viewBox="0 0 301 181">
  <g fill="none">
    <path fill="param(fill)" d="M.5.5h300v180H.5z" stroke="param(outline)" stroke-width="param(outline-width) 0" fill-opacity="param(fill-opacity)" stroke-opacity="param(outline-opacity)" />
    <path fill="param(fill)" d="M.5 45.5h300v135H.5z" stroke="param(outline)" stroke-width="param(outline-width) 0" fill-opacity="param(fill-opacity)" stroke-opacity="param(outline-opacity)" />
    <path fill="param(fill)" d="M.5 90.5h300v90H.5z" stroke="param(outline)" stroke-width="param(outline-width) 0" fill-opacity="param(fill-opacity)" stroke-opacity="param(outline-opacity)" />
    <path fill="param(fill)" d="M.5 135.5h300v45H.5z" stroke="param(outline)" stroke-width="param(outline-width) 0" fill-opacity="param(fill-opacity)" stroke-opacity="param(outline-opacity)" />
    <path fill="param(fill)" d="M.5 180.5l150-90L.5.5z" stroke="param(outline)" stroke-width="param(outline-width) 0" fill-opacity="param(fill-opacity)" stroke-opacity="param(outline-opacity)" />
    <circle cx="51.5" cy="90.5" r="40.5" fill="param(fill)" stroke="param(outline)" stroke-width="param(outline-width) 0" fill-opacity="param(fill-opacity)" stroke-opacity="param(outline-opacity)" />
    <circle cx="69.5" cy="90.5" r="40.5" fill="param(fill)" stroke="param(outline)" stroke-width="param(outline-width) 0" fill-opacity="param(fill-opacity)" stroke-opacity="param(outline-opacity)" />
    <path fill="param(fill)" d="M53.368 59.195h5.449l1.683-5.183 1.683 5.183h5.449l-4.408 3.202 1.683 5.182-4.407-3.202-4.408 3.202 1.683-5.182zM53.368 78.52h5.449l1.683-5.182 1.683 5.182h5.449l-4.408 3.202 1.683 5.183-4.407-3.202-4.408 3.202 1.683-5.183zM53.368 97.845h5.449l1.683-5.183 1.683 5.183h5.449l-4.408 3.202 1.683 5.183-4.407-3.203-4.408 3.203 1.683-5.183zM53.368 117.17h5.449l1.683-5.183 1.683 5.183h5.449l-4.408 3.202 1.683 5.183-4.407-3.202-4.408 3.202 1.683-5.183z" stroke="param(outline)" stroke-width="param(outline-width) 0" fill-opacity="param(fill-opacity)" stroke-opacity="param(outline-opacity)" />
  </g>
</svg>