<svg xmlns="http://www.w3.org/2000/svg" xmlns:ns1="http://www.w3.org/1999/xlink" width="301" height="201" viewBox="0 0 301 201">
  <defs>
    <path id="a" d="M.5.5h300v200H.5z" fill="param(fill)" stroke="param(outline)" stroke-width="param(outline-width) 0" fill-opacity="param(fill-opacity)" stroke-opacity="param(outline-opacity)" />
    <path id="c" d="M.5.5h300v200H.5z" fill="param(fill)" stroke="param(outline)" stroke-width="param(outline-width) 0" fill-opacity="param(fill-opacity)" stroke-opacity="param(outline-opacity)" />
  </defs>
  <g fill="none" fill-rule="evenodd">
    <path fill="param(fill)" fill-rule="nonzero" d="M300.5.5H.5v200z" stroke="param(outline)" stroke-width="param(outline-width) 0" fill-opacity="param(fill-opacity)" stroke-opacity="param(outline-opacity)" />
    <path fill="param(fill)" fill-rule="nonzero" d="M.5 200.5h300V.5z" stroke="param(outline)" stroke-width="param(outline-width) 0" fill-opacity="param(fill-opacity)" stroke-opacity="param(outline-opacity)" />
    <mask id="b" fill="#fff">
      <use ns1:href="#a" />
    </mask>
    <path fill="param(fill)" fill-rule="nonzero" stroke="param(outline)" stroke-width="param(outline-width) 0" d="M.5 200.5l300-200" mask="url(#b)" fill-opacity="param(fill-opacity)" stroke-opacity="param(outline-opacity)" />
    <mask id="d" fill="#fff">
      <use ns1:href="#c" />
    </mask>
    <path fill="param(fill)" fill-rule="nonzero" stroke="param(outline)" stroke-width="param(outline-width) 0" d="M.5 200.5l300-200" mask="url(#d)" fill-opacity="param(fill-opacity)" stroke-opacity="param(outline-opacity)" />
    <path fill="param(fill)" fill-rule="nonzero" d="M60.5 22.166l5.176 14.015 11.49-9.549-2.525 14.726 14.726-2.525-9.549 11.49 14.015 5.176-14.015 5.176 9.549 11.49-14.726-2.524 2.525 14.725-11.49-9.549L60.5 88.832l-5.176-14.015-11.49 9.549 2.524-14.725-14.725 2.524 9.549-11.49-14.015-5.176 14.015-5.176-9.549-11.49 14.725 2.525-2.524-14.726 11.49 9.549z" stroke="param(outline)" stroke-width="param(outline-width) 0" fill-opacity="param(fill-opacity)" stroke-opacity="param(outline-opacity)" />
    <circle cx="60.5" cy="55.5" r="18.333" fill="param(fill)" fill-rule="nonzero" stroke="param(outline)" stroke-width="param(outline-width) 0" fill-opacity="param(fill-opacity)" stroke-opacity="param(outline-opacity)" />
  </g>
</svg>