<svg xmlns="http://www.w3.org/2000/svg" width="301" height="201" viewBox="0 0 301 201">
  <g fill="none">
    <path fill="param(fill)" d="M.5.5h300v100H.5z" stroke="param(outline)" stroke-width="param(outline-width) 0" fill-opacity="param(fill-opacity)" stroke-opacity="param(outline-opacity)" />
    <path fill="param(fill)" d="M.5 100.5h300v50H.5z" stroke="param(outline)" stroke-width="param(outline-width) 0" fill-opacity="param(fill-opacity)" stroke-opacity="param(outline-opacity)" />
    <path fill="param(fill)" d="M.5 150.5h300v50H.5z" stroke="param(outline)" stroke-width="param(outline-width) 0" fill-opacity="param(fill-opacity)" stroke-opacity="param(outline-opacity)" />
    <path fill="param(fill)" d="M279 52.75l-22.336 1.305 21.237 7.042-21.912-4.52 18.691 12.298-19.996-10.037 14.871 16.717-16.717-14.871 10.037 19.996-12.298-18.69 4.52 21.912-7.042-21.237L246.75 85l-.278-32.528z" stroke="param(outline)" stroke-width="param(outline-width) 0" fill-opacity="param(fill-opacity)" stroke-opacity="param(outline-opacity)" />
    <path fill="param(fill)" d="M279 52.75l-22.336-1.305 21.237-7.042-21.912 4.52 18.691-12.298-19.996 10.037 14.871-16.717-16.717 14.871 10.037-19.996-12.298 18.691 4.52-21.912-7.042 21.237L246.75 20.5l-.278 32.528z" stroke="param(outline)" stroke-width="param(outline-width) 0" fill-opacity="param(fill-opacity)" stroke-opacity="param(outline-opacity)" />
    <path fill="param(fill)" d="M214.5 52.75l22.336 1.305-21.237 7.042 21.912-4.52-18.691 12.298 19.996-10.037-14.871 16.717 16.717-14.871-10.037 19.996 12.298-18.69-4.52 21.912 7.042-21.237L246.75 85l.278-32.528z" stroke="param(outline)" stroke-width="param(outline-width) 0" fill-opacity="param(fill-opacity)" stroke-opacity="param(outline-opacity)" />
    <path fill="param(fill)" d="M214.5 52.75l22.336-1.305-21.237-7.042 21.912 4.52-18.691-12.298 19.996 10.037-14.871-16.717 16.717 14.871-10.037-19.996 12.298 18.691-4.52-21.912 7.042 21.237L246.75 20.5l.278 32.528z" stroke="param(outline)" stroke-width="param(outline-width) 0" fill-opacity="param(fill-opacity)" stroke-opacity="param(outline-opacity)" />
    <circle cx="246.75" cy="52.75" r="9.528" fill="param(fill)" stroke="param(outline)" stroke-width="param(outline-width) 0" fill-opacity="param(fill-opacity)" stroke-opacity="param(outline-opacity)" />
  </g>
</svg>