<svg xmlns="http://www.w3.org/2000/svg" xmlns:ns1="http://www.w3.org/1999/xlink" width="301" height="151" viewBox="0 0 301 151">
  <defs>
    <path id="a" d="M.5.5h300v150H.5z" fill="param(fill)" stroke="param(outline)" stroke-width="param(outline-width) 0" fill-opacity="param(fill-opacity)" stroke-opacity="param(outline-opacity)" />
  </defs>
  <g fill="none" fill-rule="evenodd">
    <path fill="param(fill)" fill-rule="nonzero" d="M.5.5h300v150H.5z" stroke="param(outline)" stroke-width="param(outline-width) 0" fill-opacity="param(fill-opacity)" stroke-opacity="param(outline-opacity)" />
    <path fill="param(fill)" fill-rule="nonzero" d="M.5 150.5V.5h300" stroke="param(outline)" stroke-width="param(outline-width) 0" fill-opacity="param(fill-opacity)" stroke-opacity="param(outline-opacity)" />
    <mask id="b" fill="#fff">
      <use ns1:href="#a" />
    </mask>
    <path stroke="param(outline)" stroke-width="param(outline-width) 0" d="M300.5.5l-300 150" mask="url(#b)" fill="param(fill)" fill-opacity="param(fill-opacity)" stroke-opacity="param(outline-opacity)" />
    <path fill="param(fill)" fill-rule="nonzero" d="M9.123 15.484l8.816 6.406-3.367 10.365 8.817-6.406 8.816 6.406-3.367-10.365 8.817-6.406H26.756L23.389 5.12l-3.368 10.364zM68.346 15.484l8.817 6.406-3.368 10.365 8.817-6.406 8.816 6.406-3.367-10.365 8.817-6.406H85.98L82.612 5.12l-3.368 10.364zM38.734 40.865l8.817 6.405-3.368 10.365L53 51.229l8.817 6.406-3.368-10.365 8.817-6.405H56.368L53 30.5l-3.367 10.365zM9.123 66.245l8.816 6.406-3.367 10.364 8.817-6.405 8.816 6.405-3.367-10.364 8.817-6.406H26.756L23.389 55.88l-3.368 10.365zM68.346 66.245l8.817 6.406-3.368 10.364 8.817-6.405 8.816 6.405-3.367-10.364 8.817-6.406H85.98L82.612 55.88l-3.368 10.365z" stroke="param(outline)" stroke-width="param(outline-width) 0" fill-opacity="param(fill-opacity)" stroke-opacity="param(outline-opacity)" />
  </g>
</svg>