<svg xmlns="http://www.w3.org/2000/svg" width="301" height="151" viewBox="0 0 301 151">
  <g fill="none">
    <path fill="param(fill)" d="M.5.5h300v150H.5z" stroke="param(outline)" stroke-width="param(outline-width) 0" fill-opacity="param(fill-opacity)" stroke-opacity="param(outline-opacity)" />
    <path fill="param(fill)" d="M80 .5h150v150z" stroke="param(outline)" stroke-width="param(outline-width) 0" fill-opacity="param(fill-opacity)" stroke-opacity="param(outline-opacity)" />
    <path fill="param(fill)" d="M61.376 10.341L53 4.255l-8.376 6.086L47.831.5h10.338zM85.303 13.159l-8.376 6.086 3.199 9.846-8.376-6.085-8.376 6.085 3.2-9.846-8.376-6.086h10.353l3.199-9.846 3.2 9.846zM104.053 31.909l-8.376 6.086 3.199 9.846-8.376-6.085-8.376 6.085 3.2-9.846-8.376-6.086h10.353l3.199-9.846 3.2 9.846zM122.803 50.668l-8.376 6.086 3.199 9.847-8.376-6.086-8.376 6.086 3.2-9.847-8.376-6.086h10.353l3.199-9.846 3.2 9.846zM141.555 69.416l-8.376 6.086 3.2 9.846-8.376-6.085-8.376 6.085 3.199-9.846-8.376-6.086h10.353l3.2-9.846 3.199 9.846zM160.299 88.167l-8.376 6.086 3.2 9.846-8.376-6.086-8.376 6.086 3.199-9.846-8.376-6.086h10.353l3.2-9.847 3.199 9.847zM179.057 106.923l-8.375 6.085 3.199 9.847-8.376-6.086-8.376 6.086 3.199-9.847-8.376-6.085h10.354l3.199-9.847 3.199 9.847zM197.806 125.664l-8.376 6.086 3.2 9.846-8.376-6.085-8.376 6.085 3.199-9.846-8.376-6.086h10.354l3.199-9.846 3.199 9.846zM216.553 144.409H206.2l-3.2-9.846-3.199 9.846h-10.353l8.376 6.086h10.353z" stroke="param(outline)" stroke-width="param(outline-width) 0" fill-opacity="param(fill-opacity)" stroke-opacity="param(outline-opacity)" />
  </g>
</svg>