<svg xmlns="http://www.w3.org/2000/svg" xmlns:ns1="http://www.w3.org/1999/xlink" width="301" height="201" viewBox="0 0 301 201">
  <defs>
    <path id="a" d="M.5.5h300v200H.5z" fill="param(fill)" stroke="param(outline)" stroke-width="param(outline-width) 0" fill-opacity="param(fill-opacity)" stroke-opacity="param(outline-opacity)" />
    <path id="c" d="M.5.5h300v200H.5z" fill="param(fill)" stroke="param(outline)" stroke-width="param(outline-width) 0" fill-opacity="param(fill-opacity)" stroke-opacity="param(outline-opacity)" />
  </defs>
  <g fill="none" fill-rule="evenodd">
    <path fill="param(fill)" fill-rule="nonzero" d="M300.5.5H.5v200" stroke="param(outline)" stroke-width="param(outline-width) 0" fill-opacity="param(fill-opacity)" stroke-opacity="param(outline-opacity)" />
    <path fill="param(fill)" fill-rule="nonzero" d="M.5 200.5h300V.5" stroke="param(outline)" stroke-width="param(outline-width) 0" fill-opacity="param(fill-opacity)" stroke-opacity="param(outline-opacity)" />
    <mask id="b" fill="#fff">
      <use ns1:href="#a" />
    </mask>
    <path fill="param(fill)" fill-rule="nonzero" stroke="param(outline)" stroke-width="param(outline-width) 0" d="M.5 200.5l300-200" mask="url(#b)" fill-opacity="param(fill-opacity)" stroke-opacity="param(outline-opacity)" />
    <mask id="d" fill="#fff">
      <use ns1:href="#c" />
    </mask>
    <path fill="param(fill)" fill-rule="nonzero" stroke="param(outline)" stroke-width="param(outline-width) 0" d="M.5 200.5l300-200" mask="url(#d)" fill-opacity="param(fill-opacity)" stroke-opacity="param(outline-opacity)" />
    <path fill="param(fill)" fill-rule="nonzero" d="M180.544 70.072l20.326.82 5.501 19.585 7.062-19.078 20.326.82-15.962-12.611 7.061-19.079-16.927 11.284-15.963-12.61 5.502 19.585zM66.544 146.072l20.326.82 5.501 19.585 7.062-19.078 20.326.82-15.962-12.611 7.061-19.079-16.927 11.284-15.963-12.61 5.502 19.585z" stroke="param(outline)" stroke-width="param(outline-width) 0" fill-opacity="param(fill-opacity)" stroke-opacity="param(outline-opacity)" />
  </g>
</svg>