<svg xmlns="http://www.w3.org/2000/svg" width="301" height="201" viewBox="0 0 301 201">
  <g fill="none">
    <path fill="param(fill)" d="M.5.5h300v200H.5z" stroke="param(outline)" stroke-width="param(outline-width) 0" fill-opacity="param(fill-opacity)" stroke-opacity="param(outline-opacity)" />
    <path fill="param(fill)" d="M.5.5h300v60H.5z" stroke="param(outline)" stroke-width="param(outline-width) 0" fill-opacity="param(fill-opacity)" stroke-opacity="param(outline-opacity)" />
    <path fill="param(fill)" d="M.5 140.5h300v60H.5z" stroke="param(outline)" stroke-width="param(outline-width) 0" fill-opacity="param(fill-opacity)" stroke-opacity="param(outline-opacity)" />
    <path fill="param(fill)" stroke="param(outline)" stroke-width="param(outline-width) 0" d="M114.777 159.875l2.165 1.25 58.391-101.136c3.415-.915 5.29-4.163 7.165-7.41 1.25-2.165 6.25-10.826 8.417-22.079-8.662 7.503-13.662 16.163-14.912 18.329-1.875 3.247-3.75 6.495-2.835 9.91l-58.391 101.136z" fill-opacity="param(fill-opacity)" stroke-opacity="param(outline-opacity)" />
    <path fill="param(fill)" d="M114.777 159.875l2.165 1.25 58.391-101.136c3.415-.915 5.29-4.163 7.165-7.41 1.25-2.165 6.25-10.826 8.417-22.079-8.662 7.503-13.662 16.163-14.912 18.329-1.875 3.247-3.75 6.495-2.835 9.91l-58.391 101.136z" stroke="param(outline)" stroke-width="param(outline-width) 0" fill-opacity="param(fill-opacity)" stroke-opacity="param(outline-opacity)" />
    <path fill="param(fill)" stroke="param(outline)" stroke-width="param(outline-width) 0" d="M186.224 159.875l-2.165 1.25-58.391-101.136c-3.415-.915-5.29-4.163-7.165-7.41-1.25-2.165-6.25-10.826-8.417-22.079 8.662 7.503 13.662 16.163 14.912 18.329 1.875 3.247 3.75 6.495 2.835 9.91l58.391 101.136z" fill-opacity="param(fill-opacity)" stroke-opacity="param(outline-opacity)" />
    <path fill="param(fill)" d="M186.224 159.875l-2.165 1.25-58.391-101.136c-3.415-.915-5.29-4.163-7.165-7.41-1.25-2.165-6.25-10.826-8.417-22.079 8.662 7.503 13.662 16.163 14.912 18.329 1.875 3.247 3.75 6.495 2.835 9.91l58.391 101.136z" stroke="param(outline)" stroke-width="param(outline-width) 0" fill-opacity="param(fill-opacity)" stroke-opacity="param(outline-opacity)" />
    <path fill="param(fill)" d="M.5 70.5v60h126.25c3.75 10 16.25 30 23.75 30s20-20 23.75-30H300.5v-60H174.25c-3.75-10-16.25-30-23.75-30s-20 20-23.75 30H.5z" stroke="param(outline)" stroke-width="param(outline-width) 0" fill-opacity="param(fill-opacity)" stroke-opacity="param(outline-opacity)" />
    <path fill="param(fill)" d="M174.25 130.5c3.75-10 6.25-20 6.25-30s-2.5-20-6.25-30c-3.75 10-6.25 20-6.25 30s2.5 20 6.25 30M126.75 130.5c-3.75-10-6.25-20-6.25-30s2.5-20 6.25-30c3.75 10 6.25 20 6.25 30s-2.5 20-6.25 30" stroke="param(outline)" stroke-width="param(outline-width) 0" fill-opacity="param(fill-opacity)" stroke-opacity="param(outline-opacity)" />
    <ellipse cx="150.5" cy="100.5" fill="#FFF" rx="5" ry="7.5" />
    <path fill="param(fill)" d="M151.75 107.812s5 10 5 26.25-5 26.25-5 26.25v-52.5zM149.25 93.187s-5-10-5-26.25 5-26.25 5-26.25v52.5zM149.25 107.812s-5 10-5 26.25 5 26.25 5 26.25v-52.5zM151.75 93.187s5-10 5-26.25-5-26.25-5-26.25v52.5z" stroke="param(outline)" stroke-width="param(outline-width) 0" fill-opacity="param(fill-opacity)" stroke-opacity="param(outline-opacity)" />
  </g>
</svg>