<svg xmlns="http://www.w3.org/2000/svg" width="301" height="151" viewBox="0 0 301 151">
  <g fill="none">
    <path fill="param(fill)" d="M.5.5h299.843v149.983H.5z" stroke="param(outline)" stroke-width="param(outline-width) 0" fill-opacity="param(fill-opacity)" stroke-opacity="param(outline-opacity)" />
    <path fill="param(fill)" d="M135.428 90.444v60.039h29.988V90.444h134.928V60.46H165.416V.5h-29.988v59.96H.5v29.984z" stroke="param(outline)" stroke-width="param(outline-width) 0" fill-opacity="param(fill-opacity)" stroke-opacity="param(outline-opacity)" />
    <path fill="param(fill)" d="M175.415 49.049V.5h97.08zM175.415 101.933v48.55h97.08zM125.428 101.933v48.55H28.349zM125.428 49.049V.5H28.349zM.501 14.442v36.051h72.087zM300.343 14.442v36.051h-72.087zM300.343 136.541V100.49h-72.087zM.501 136.541V100.49h72.087z" stroke="param(outline)" stroke-width="param(outline-width) 0" fill-opacity="param(fill-opacity)" stroke-opacity="param(outline-opacity)" />
    <path fill="param(fill)" d="M300.343.5h-16.654L183.9 50.493h16.654L300.5.5M116.943 100.487h-16.654L.5 150.48h16.654l99.946-49.993M83.768 50.532h16.653L.5.5v8.385zM217.023 100.468h-16.654L300.29 150.5v-8.385z" stroke="param(outline)" stroke-width="param(outline-width) 0" fill-opacity="param(fill-opacity)" stroke-opacity="param(outline-opacity)" />
  </g>
</svg>