<svg xmlns="http://www.w3.org/2000/svg" width="301" height="151" viewBox="0 0 301 151">
  <g fill="none" fill-rule="evenodd">
    <path fill="param(fill)" fill-rule="nonzero" d="M.5.5h300v150H.5z" stroke="param(outline)" stroke-width="param(outline-width) 0" fill-opacity="param(fill-opacity)" stroke-opacity="param(outline-opacity)" />
    <path fill="param(fill)" fill-rule="nonzero" d="M100.5.5h100v150h-100z" stroke="param(outline)" stroke-width="param(outline-width) 0" fill-opacity="param(fill-opacity)" stroke-opacity="param(outline-opacity)" />
    <circle cx="50.5" cy="51.75" r="13.75" fill="param(fill)" fill-rule="nonzero" stroke="param(outline)" stroke-width="param(outline-width) 0" fill-opacity="param(fill-opacity)" stroke-opacity="param(outline-opacity)" />
    <circle cx="50.5" cy="45.5" r="15" fill="param(fill)" fill-rule="nonzero" stroke="param(outline)" stroke-width="param(outline-width) 0" fill-opacity="param(fill-opacity)" stroke-opacity="param(outline-opacity)" />
    <circle cx="50.5" cy="48" r="10" fill="param(fill)" fill-rule="nonzero" stroke="param(outline)" stroke-width="param(outline-width) 0" fill-opacity="param(fill-opacity)" stroke-opacity="param(outline-opacity)" />
    <path fill="param(fill)" fill-rule="nonzero" d="M44.25 29.25a6.251 6.251 0 0012.5 0c0-2.5-1.563-2.813-1.563-3.75 0-.937.938-2.188-.938-3.75.938 1.563-.625 1.875-.625 3.438 0 1.563.625 1.563.625 2.813a1.25 1.25 0 01-2.5 0c0-1.25 1.25-2.5 1.25-4.375s-.313-2.5-1.25-4.063c-.937-1.563-2.5-2.813-1.25-4.063-1.875.625-.938 3.125-.938 4.688 0 1.563-1.25 2.5-1.25 4.375s.938 2.188.938 3.438a1.25 1.25 0 01-2.5 0c0-1.25.625-1.25.625-2.813 0-1.563-1.563-1.875-.625-3.438-1.875 1.563-.938 2.813-.938 3.75 0 .937-1.561 1.25-1.561 3.75zM23 68h12.5v60H23zM65.5 68H78v60H65.5zM38 78h25v5H38zM38 113h25v5H38zM38 68l12.5 7.5L63 68zM38 120.5l12.5 7.5 12.5-7.5z" stroke="param(outline)" stroke-width="param(outline-width) 0" fill-opacity="param(fill-opacity)" stroke-opacity="param(outline-opacity)" />
    <circle cx="50.5" cy="98" r="13.25" fill="param(fill)" fill-rule="nonzero" stroke="param(outline)" stroke-width="param(outline-width) 0" fill-opacity="param(fill-opacity)" stroke-opacity="param(outline-opacity)" />
    <path stroke="param(outline)" stroke-width="param(outline-width) 0" d="M50.5 84.75a6.625 6.625 0 110 13.25 6.625 6.625 0 100 13.25" fill="param(fill)" fill-opacity="param(fill-opacity)" stroke-opacity="param(outline-opacity)" />
    <circle cx="50.5" cy="91.375" r="2.5" fill="param(fill)" fill-rule="nonzero" stroke="param(outline)" stroke-width="param(outline-width) 0" fill-opacity="param(fill-opacity)" stroke-opacity="param(outline-opacity)" />
    <circle cx="50.5" cy="104.625" r="2.5" fill="param(fill)" fill-rule="nonzero" stroke="param(outline)" stroke-width="param(outline-width) 0" fill-opacity="param(fill-opacity)" stroke-opacity="param(outline-opacity)" />
  </g>
</svg>