<svg xmlns="http://www.w3.org/2000/svg" viewBox="0 0 512 512">
  <rect width="32" height="32" x="160" y="304" fill="param(fill)" stroke="param(outline)" stroke-width="param(outline-width) 0" fill-opacity="param(fill-opacity)" stroke-opacity="param(outline-opacity)" />
  <rect width="32" height="32" x="240" y="304" fill="param(fill)" stroke="param(outline)" stroke-width="param(outline-width) 0" fill-opacity="param(fill-opacity)" stroke-opacity="param(outline-opacity)" />
  <rect width="32" height="32" x="320" y="304" fill="param(fill)" stroke="param(outline)" stroke-width="param(outline-width) 0" fill-opacity="param(fill-opacity)" stroke-opacity="param(outline-opacity)" />
  <path fill="param(fill)" d="M440,464V88H368V16H144V88H72V464H16v32H496V464ZM176,48H336V208H176ZM408,464H272V400H240v64H104V120h40V240H368V120h40Z" stroke="param(outline)" stroke-width="param(outline-width) 0" fill-opacity="param(fill-opacity)" stroke-opacity="param(outline-opacity)" />
  <polygon fill="param(fill)" points="272 80 240 80 240 112 208 112 208 144 240 144 240 176 272 176 272 144 304 144 304 112 272 112 272 80" stroke="param(outline)" stroke-width="param(outline-width) 0" fill-opacity="param(fill-opacity)" stroke-opacity="param(outline-opacity)" />
</svg>