<svg xmlns="http://www.w3.org/2000/svg" viewBox="0 0 512 512">
  <path fill="param(fill)" d="M136,416h88a24.028,24.028,0,0,0,24-24V184a24.028,24.028,0,0,0-24-24H136a24.028,24.028,0,0,0-24,24V392A24.028,24.028,0,0,0,136,416Zm8-224h72V384H144Z" stroke="param(outline)" stroke-width="param(outline-width) 0" fill-opacity="param(fill-opacity)" stroke-opacity="param(outline-opacity)" />
  <path fill="param(fill)" d="M424,16H336a24.028,24.028,0,0,0-24,24V392a24.028,24.028,0,0,0,24,24h88a24.028,24.028,0,0,0,24-24V40A24.028,24.028,0,0,0,424,16Zm-8,368H344V48h72Z" stroke="param(outline)" stroke-width="param(outline-width) 0" fill-opacity="param(fill-opacity)" stroke-opacity="param(outline-opacity)" />
  <polygon fill="param(fill)" points="48 16 16 16 16 496 496 496 496 464 48 464 48 16" stroke="param(outline)" stroke-width="param(outline-width) 0" fill-opacity="param(fill-opacity)" stroke-opacity="param(outline-opacity)" />
</svg>