<svg xmlns="http://www.w3.org/2000/svg" viewBox="0 0 512 512">
  <path fill="param(fill)" d="M200,48H72A24.028,24.028,0,0,0,48,72V440a24.028,24.028,0,0,0,24,24H200a24.028,24.028,0,0,0,24-24V72A24.028,24.028,0,0,0,200,48Zm-8,384H80V80H192Z" stroke="param(outline)" stroke-width="param(outline-width) 0" fill-opacity="param(fill-opacity)" stroke-opacity="param(outline-opacity)" />
  <path fill="param(fill)" d="M440,48H312a24.028,24.028,0,0,0-24,24V440a24.028,24.028,0,0,0,24,24H440a24.028,24.028,0,0,0,24-24V72A24.028,24.028,0,0,0,440,48Zm-8,384H320V80H432Z" stroke="param(outline)" stroke-width="param(outline-width) 0" fill-opacity="param(fill-opacity)" stroke-opacity="param(outline-opacity)" />
</svg>