<svg xmlns="http://www.w3.org/2000/svg" viewBox="0 0 512 512">
  <path fill="param(fill)" d="M472,16H160a24.027,24.027,0,0,0-24,24V352a24.027,24.027,0,0,0,24,24H472a24.027,24.027,0,0,0,24-24V40A24.027,24.027,0,0,0,472,16Zm-8,328H168V48H464Z" stroke="param(outline)" stroke-width="param(outline-width) 0" fill-opacity="param(fill-opacity)" stroke-opacity="param(outline-opacity)" />
  <path fill="param(fill)" d="M344,464H48V168h56V136H40a24.027,24.027,0,0,0-24,24V472a24.027,24.027,0,0,0,24,24H352a24.027,24.027,0,0,0,24-24V408H344Z" stroke="param(outline)" stroke-width="param(outline-width) 0" fill-opacity="param(fill-opacity)" stroke-opacity="param(outline-opacity)" />
</svg>