<svg xmlns="http://www.w3.org/2000/svg" viewBox="0 0 512 512">
  <path fill="param(fill)" d="M256,104c-83.813,0-152,68.187-152,152s68.187,152,152,152,152-68.187,152-152S339.813,104,256,104Zm0,272A120,120,0,1,1,376,256,120.136,120.136,0,0,1,256,376Z" stroke="param(outline)" stroke-width="param(outline-width) 0" fill-opacity="param(fill-opacity)" stroke-opacity="param(outline-opacity)" />
  <rect width="32" height="48" x="240" y="16" fill="param(fill)" stroke="param(outline)" stroke-width="param(outline-width) 0" fill-opacity="param(fill-opacity)" stroke-opacity="param(outline-opacity)" />
  <rect width="32" height="48" x="240" y="448" fill="param(fill)" stroke="param(outline)" stroke-width="param(outline-width) 0" fill-opacity="param(fill-opacity)" stroke-opacity="param(outline-opacity)" />
  <rect width="48" height="32" x="448" y="240" fill="param(fill)" stroke="param(outline)" stroke-width="param(outline-width) 0" fill-opacity="param(fill-opacity)" stroke-opacity="param(outline-opacity)" />
  <rect width="48" height="32" x="16" y="240" fill="param(fill)" stroke="param(outline)" stroke-width="param(outline-width) 0" fill-opacity="param(fill-opacity)" stroke-opacity="param(outline-opacity)" />
  <rect width="32" height="45.255" x="400" y="393.373" fill="param(fill)" transform="rotate(-45 416 416)" stroke="param(outline)" stroke-width="param(outline-width) 0" fill-opacity="param(fill-opacity)" stroke-opacity="param(outline-opacity)" />
  <rect width="32.001" height="45.255" x="80" y="73.373" fill="param(fill)" transform="rotate(-45 96 96)" stroke="param(outline)" stroke-width="param(outline-width) 0" fill-opacity="param(fill-opacity)" stroke-opacity="param(outline-opacity)" />
  <rect width="45.255" height="32" x="73.373" y="400" fill="param(fill)" transform="rotate(-45.001 96.002 416.003)" stroke="param(outline)" stroke-width="param(outline-width) 0" fill-opacity="param(fill-opacity)" stroke-opacity="param(outline-opacity)" />
  <rect width="45.255" height="32.001" x="393.373" y="80" fill="param(fill)" transform="rotate(-45 416 96)" stroke="param(outline)" stroke-width="param(outline-width) 0" fill-opacity="param(fill-opacity)" stroke-opacity="param(outline-opacity)" />
</svg>