<svg xmlns="http://www.w3.org/2000/svg" viewBox="0 0 512 512">
  <path fill="param(fill)" d="M136,488H495.985V24H16V488H136ZM408,56h55.985V96H408Zm0,72h55.985v40H408Zm0,72h55.985v40H408Zm0,72h55.985v40H408Zm0,72h55.985v40H408Zm0,72h55.985v40H408ZM136,200V56H375.985V240H136Zm0,216V272H375.985V456H136ZM48,56h56V96H48Zm0,72h56v40H48Zm0,72h56v40H48Zm0,72h56v40H48Zm0,72h56v40H48Zm0,72h56v40H48Z" stroke="param(outline)" stroke-width="param(outline-width) 0" fill-opacity="param(fill-opacity)" stroke-opacity="param(outline-opacity)" />
</svg>