<svg xmlns="http://www.w3.org/2000/svg" viewBox="0 0 512 512">
  <path fill="param(fill)" d="M48,464V144H16V472a24.027,24.027,0,0,0,24,24H368V464H48Z" stroke="param(outline)" stroke-width="param(outline-width) 0" fill-opacity="param(fill-opacity)" stroke-opacity="param(outline-opacity)" />
  <path fill="param(fill)" d="M144,400H112V80H80V408a24.027,24.027,0,0,0,24,24H432V400H144Z" stroke="param(outline)" stroke-width="param(outline-width) 0" fill-opacity="param(fill-opacity)" stroke-opacity="param(outline-opacity)" />
  <path fill="param(fill)" d="M472,16H168a24.027,24.027,0,0,0-24,24V344a24.027,24.027,0,0,0,24,24H472a24.027,24.027,0,0,0,24-24V40A24.027,24.027,0,0,0,472,16Zm-8,320H176V48H464Z" stroke="param(outline)" stroke-width="param(outline-width) 0" fill-opacity="param(fill-opacity)" stroke-opacity="param(outline-opacity)" />
  <polygon fill="param(fill)" points="304 288 336 288 336 204 420 204 420 172 336 172 336 88 304 88 304 172 220 172 220 204 304 204 304 288" stroke="param(outline)" stroke-width="param(outline-width) 0" fill-opacity="param(fill-opacity)" stroke-opacity="param(outline-opacity)" />
</svg>