<svg xmlns="http://www.w3.org/2000/svg" viewBox="0 0 512 512">
  <path fill="param(fill)" d="M364,136H272V376h92a52.059,52.059,0,0,0,52-52V188A52.059,52.059,0,0,0,364,136Zm20,188a20.023,20.023,0,0,1-20,20H304V168h60a20.023,20.023,0,0,1,20,20Z" stroke="param(outline)" stroke-width="param(outline-width) 0" fill-opacity="param(fill-opacity)" stroke-opacity="param(outline-opacity)" />
  <polygon fill="param(fill)" points="208 240 128 240 128 136 96 136 96 376 128 376 128 272 208 272 208 376 240 376 240 136 208 136 208 240" stroke="param(outline)" stroke-width="param(outline-width) 0" fill-opacity="param(fill-opacity)" stroke-opacity="param(outline-opacity)" />
  <path fill="param(fill)" d="M464,16H48A32.036,32.036,0,0,0,16,48V464a32.036,32.036,0,0,0,32,32H464a32.036,32.036,0,0,0,32-32V48A32.036,32.036,0,0,0,464,16Zm0,448H48V48H464l.02,416Z" stroke="param(outline)" stroke-width="param(outline-width) 0" fill-opacity="param(fill-opacity)" stroke-opacity="param(outline-opacity)" />
</svg>