<svg xmlns="http://www.w3.org/2000/svg" viewBox="0 0 512 512">
  <path fill="param(fill)" d="M376,16H136A48.054,48.054,0,0,0,88,64V464a32.036,32.036,0,0,0,32,32H392a32.036,32.036,0,0,0,32-32V64A48.054,48.054,0,0,0,376,16Zm16,448H120V240H392Zm0-256H120V64a16.019,16.019,0,0,1,16-16H376a16.019,16.019,0,0,1,16,16Z" stroke="param(outline)" stroke-width="param(outline-width) 0" fill-opacity="param(fill-opacity)" stroke-opacity="param(outline-opacity)" />
  <rect width="32" height="96" x="144" y="280" fill="param(fill)" stroke="param(outline)" stroke-width="param(outline-width) 0" fill-opacity="param(fill-opacity)" stroke-opacity="param(outline-opacity)" />
  <rect width="32" height="64" x="144" y="104" fill="param(fill)" stroke="param(outline)" stroke-width="param(outline-width) 0" fill-opacity="param(fill-opacity)" stroke-opacity="param(outline-opacity)" />
</svg>