<svg xmlns="http://www.w3.org/2000/svg" viewBox="0 0 512 512">
  <path fill="param(fill)" d="M472,96H40a24.028,24.028,0,0,0-24,24v80H48V128H464V384H48V312H16v80a24.028,24.028,0,0,0,24,24H472a24.028,24.028,0,0,0,24-24V120A24.028,24.028,0,0,0,472,96Z" stroke="param(outline)" stroke-width="param(outline-width) 0" fill-opacity="param(fill-opacity)" stroke-opacity="param(outline-opacity)" />
  <polygon fill="param(fill)" points="212.687 323.078 235.313 345.705 325.824 255.196 235.313 164.686 212.687 187.314 264.568 239.196 16 239.196 16 271.195 264.569 271.195 212.687 323.078" stroke="param(outline)" stroke-width="param(outline-width) 0" fill-opacity="param(fill-opacity)" stroke-opacity="param(outline-opacity)" />
</svg>