<svg xmlns="http://www.w3.org/2000/svg" viewBox="0 0 512 512">
  <path fill="param(fill)" d="M192,104V392h96a32.036,32.036,0,0,0,32-32V136a32.036,32.036,0,0,0-32-32Zm96,256H224V136h64Z" stroke="param(outline)" stroke-width="param(outline-width) 0" fill-opacity="param(fill-opacity)" stroke-opacity="param(outline-opacity)" />
  <polygon fill="param(fill)" points="160 392 160 104 128 104 128 232 64 232 64 104 32 104 32 392 64 392 64 264 128 264 128 392 160 392" stroke="param(outline)" stroke-width="param(outline-width) 0" fill-opacity="param(fill-opacity)" stroke-opacity="param(outline-opacity)" />
  <path fill="param(fill)" d="M480,232V136a32.036,32.036,0,0,0-32-32H352V392h32V264h29.167L440,331.081V392h32V324.919L447.632,264H448A32.036,32.036,0,0,0,480,232Zm-96,0V136h64v96Z" stroke="param(outline)" stroke-width="param(outline-width) 0" fill-opacity="param(fill-opacity)" stroke-opacity="param(outline-opacity)" />
</svg>