<svg xmlns="http://www.w3.org/2000/svg" viewBox="0 0 512 512">
  <path fill="param(fill)" d="M256,144a64,64,0,1,0-64-64A64.072,64.072,0,0,0,256,144Zm0-96a32,32,0,1,1-32,32A32.036,32.036,0,0,1,256,48Z" stroke="param(outline)" stroke-width="param(outline-width) 0" fill-opacity="param(fill-opacity)" stroke-opacity="param(outline-opacity)" />
  <path fill="param(fill)" d="M256,368a64,64,0,1,0,64,64A64.072,64.072,0,0,0,256,368Zm0,96a32,32,0,1,1,32-32A32.036,32.036,0,0,1,256,464Z" stroke="param(outline)" stroke-width="param(outline-width) 0" fill-opacity="param(fill-opacity)" stroke-opacity="param(outline-opacity)" />
  <path fill="param(fill)" d="M256,192a64,64,0,1,0,64,64A64.072,64.072,0,0,0,256,192Zm0,96a32,32,0,1,1,32-32A32.036,32.036,0,0,1,256,288Z" stroke="param(outline)" stroke-width="param(outline-width) 0" fill-opacity="param(fill-opacity)" stroke-opacity="param(outline-opacity)" />
</svg>