<svg xmlns="http://www.w3.org/2000/svg" enable-background="new 0 0 24 24" height="24" viewBox="0 0 24 24" width="24"><g /><g><g><path d="M17,13h2v2h-5V9h7c0-1.1-0.9-2-2-2h-5c-1.1,0-2,0.9-2,2v6c0,1.1,0.9,2,2,2h5c1.1,0,2-0.9,2-2v-4h-4V13z" fill="param(fill)" stroke="param(outline)" stroke-width="param(outline-width) 0" fill-opacity="param(fill-opacity)" stroke-opacity="param(outline-opacity)" /><path d="M3,13h5v2H3v2h5c1.1,0,2-0.9,2-2v-2c0-1.1-0.9-2-2-2H5V9h5V7H3V13z" fill="param(fill)" stroke="param(outline)" stroke-width="param(outline-width) 0" fill-opacity="param(fill-opacity)" stroke-opacity="param(outline-opacity)" /></g></g></svg>