<svg xmlns="http://www.w3.org/2000/svg" viewBox="0 0 24 24"><path d="M9,10l8,0v2L9,12Zm15,0H21V8H19V14h2V12h3Z" fill="param(fill)" stroke="param(outline)" stroke-width="param(outline-width) 0" fill-opacity="param(fill-opacity)" stroke-opacity="param(outline-opacity)" /><path d="M9,20h8v2H9Zm15,0H21V18H19v6h2V22h3Z" fill="param(fill)" stroke="param(outline)" stroke-width="param(outline-width) 0" fill-opacity="param(fill-opacity)" stroke-opacity="param(outline-opacity)" /><path d="M24,17H16V15h8ZM9,17h3v2h2V13H12v2H9Z" fill="param(fill)" stroke="param(outline)" stroke-width="param(outline-width) 0" fill-opacity="param(fill-opacity)" stroke-opacity="param(outline-opacity)" /><path d="M7.00008,6.99906H21.9432a4.92074,4.92074,0,0,0-2.58881-.95825,7.49652,7.49652,0,0,0-14-2,5.99754,5.99754,0,0,0,.65,11.96h.99572Z" fill="param(fill)" stroke="param(outline)" stroke-width="param(outline-width) 0" fill-opacity="param(fill-opacity)" stroke-opacity="param(outline-opacity)" /></svg>