<svg xmlns="http://www.w3.org/2000/svg" viewBox="0 0 24 24"><path d="M19,19H5V5h6V3H5A2.00588,2.00588,0,0,0,3,5V19a2.00588,2.00588,0,0,0,2,2H19a2.00588,2.00588,0,0,0,2-2V15H19Z" fill="param(fill)" stroke="param(outline)" stroke-width="param(outline-width) 0" fill-opacity="param(fill-opacity)" stroke-opacity="param(outline-opacity)" /><path d="M15,5h6a0,0,0,0,1,0,0v6a1,1,0,0,1-1,1H16a1,1,0,0,1-1-1V5A0,0,0,0,1,15,5Z" fill="param(fill)" stroke="param(outline)" stroke-width="param(outline-width) 0" fill-opacity="param(fill-opacity)" stroke-opacity="param(outline-opacity)" /><polygon points="22 3 20 3 19.429 2 16.571 2 16 3 14 3 14 4 22 4 22 3" fill="param(fill)" stroke="param(outline)" stroke-width="param(outline-width) 0" fill-opacity="param(fill-opacity)" stroke-opacity="param(outline-opacity)" /></svg>