<svg xmlns="http://www.w3.org/2000/svg" viewBox="0 0 24 24"><rect x="6" y="7" width="8" height="2" fill="param(fill)" stroke="param(outline)" stroke-width="param(outline-width) 0" fill-opacity="param(fill-opacity)" stroke-opacity="param(outline-opacity)" /><rect x="6" y="11" width="12" height="2" fill="param(fill)" stroke="param(outline)" stroke-width="param(outline-width) 0" fill-opacity="param(fill-opacity)" stroke-opacity="param(outline-opacity)" /><rect x="6" y="15" width="2.99" height="2" fill="param(fill)" stroke="param(outline)" stroke-width="param(outline-width) 0" fill-opacity="param(fill-opacity)" stroke-opacity="param(outline-opacity)" /><path d="M14,3,11,0V2H4A2,2,0,0,0,2,4V20a2,2,0,0,0,2,2H8V20H4V4h7V6Z" fill="param(fill)" stroke="param(outline)" stroke-width="param(outline-width) 0" fill-opacity="param(fill-opacity)" stroke-opacity="param(outline-opacity)" /><path d="M10,21l3,3V22h7a2,2,0,0,0,2-2V4a2,2,0,0,0-2-2H16V4h4V20H13V18Z" fill="param(fill)" stroke="param(outline)" stroke-width="param(outline-width) 0" fill-opacity="param(fill-opacity)" stroke-opacity="param(outline-opacity)" /></svg>