<svg xmlns="http://www.w3.org/2000/svg" viewBox="0 0 24 24">
  <path d="M20.00311,9.98322H18.5119l-5.30182-3.431A1.97353,1.97353,0,0,0,13.01367,3.276V1.99445H12V4.00128a.99269.99269,0,1,1-1,.992l.00244-.01221h-.99359a1.98069,1.98069,0,0,0,.7868,1.57593L5.50128,9.98322H3.99689A1.99685,1.99685,0,0,0,2,11.9801v8.023a1.99689,1.99689,0,0,0,1.99689,1.99689H19.99628A2.00372,2.00372,0,0,0,22,19.99622V11.9801A1.99685,1.99685,0,0,0,20.00311,9.98322Zm-8.0083-3.01154L12,6.97223l.0166-.00165,4.65546,3.01264H7.34113ZM7,17.99994a1,1,0,0,1-2,0v-4a1,1,0,0,1,2,0Zm4.02222,0a1,1,0,0,1-2,0v-4a1,1,0,1,1,2,0Zm3.99145,0a1,1,0,0,1-2,0v-4a1,1,0,0,1,2,0Zm4.02222,0a1,1,0,0,1-2,0v-4a1,1,0,1,1,2,0Z" fill="param(fill)" stroke="param(outline)" stroke-width="param(outline-width) 0" fill-opacity="param(fill-opacity)" stroke-opacity="param(outline-opacity)" />
</svg>