<svg xmlns="http://www.w3.org/2000/svg" id="EOS_icon" data-name="EOS icon" viewBox="0 0 24 24"><path d="M8,17c-2.67,0-8,1.34-8,4v3H16V21C16,18.34,10.67,17,8,17Z" fill="param(fill)" stroke="param(outline)" stroke-width="param(outline-width) 0" fill-opacity="param(fill-opacity)" stroke-opacity="param(outline-opacity)" /><circle cx="8" cy="12" r="4" fill="param(fill)" stroke="param(outline)" stroke-width="param(outline-width) 0" fill-opacity="param(fill-opacity)" stroke-opacity="param(outline-opacity)" /><polygon points="23 21.271 23 17.001 22.91 17.001 21.14 17.631 21.14 18.321 22.15 18.011 22.15 21.271 23 21.271" fill="param(fill)" stroke="param(outline)" stroke-width="param(outline-width) 0" fill-opacity="param(fill-opacity)" stroke-opacity="param(outline-opacity)" /><path d="M21.12,5.82067v.74c0,1.9,1.31,1.82,1.44,1.82.14,0,1.44.09,1.44-1.82v-.74c0-1.9-1.31-1.82-1.44-1.82C22.42,4.00067,21.12,3.91067,21.12,5.82067Zm2.04-.12v.97c0,.77-.21,1.03-.59,1.03s-.6-.26-.6-1.03v-.97c0-.75.22-1.01.59-1.01C22.94,4.68067,23.16,4.95067,23.16,5.70067Z" fill="param(fill)" stroke="param(outline)" stroke-width="param(outline-width) 0" fill-opacity="param(fill-opacity)" stroke-opacity="param(outline-opacity)" /><polygon points="19 5.271 19 1.001 18.91 1.001 17.14 1.631 17.14 2.321 18.15 2.011 18.15 5.271 19 5.271" fill="param(fill)" stroke="param(outline)" stroke-width="param(outline-width) 0" fill-opacity="param(fill-opacity)" stroke-opacity="param(outline-opacity)" /><polygon points="19 17.271 19 13.001 18.91 13.001 17.14 13.631 17.14 14.321 18.15 14.011 18.15 17.271 19 17.271" fill="param(fill)" stroke="param(outline)" stroke-width="param(outline-width) 0" fill-opacity="param(fill-opacity)" stroke-opacity="param(outline-opacity)" /><path d="M17.12,8.82v.74c0,1.9,1.31,1.82,1.44,1.82.14,0,1.44.09,1.44-1.82V8.82C20,6.92,18.69,7,18.56,7,18.42,7,17.12,6.91,17.12,8.82Zm2.04-.12v.97c0,.77-.21,1.03-.59,1.03s-.6-.26-.6-1.03V8.7c0-.75.22-1.01.59-1.01C18.94,7.68,19.16,7.95,19.16,8.7Z" fill="param(fill)" stroke="param(outline)" stroke-width="param(outline-width) 0" fill-opacity="param(fill-opacity)" stroke-opacity="param(outline-opacity)" /><path d="M17.12,20.822v.74c0,1.9,1.31,1.82,1.44,1.82.14,0,1.44.09,1.44-1.82v-.74c0-1.9-1.31-1.82-1.44-1.82C18.42,19.002,17.12,18.912,17.12,20.822Zm2.04-.12v.97c0,.77-.21,1.03-.59,1.03s-.6-.26-.6-1.03v-.97c0-.75.22-1.01.59-1.01C18.94,19.682,19.16,19.952,19.16,20.702Z" fill="param(fill)" stroke="param(outline)" stroke-width="param(outline-width) 0" fill-opacity="param(fill-opacity)" stroke-opacity="param(outline-opacity)" /><path d="M21.12,12.84825v.74c0,1.9,1.31,1.82,1.44,1.82.14,0,1.44.09,1.44-1.82v-.74c0-1.9-1.31-1.82-1.44-1.82C22.42,11.02825,21.12,10.93825,21.12,12.84825Zm2.04-.12v.97c0,.77-.21,1.03-.59,1.03s-.6-.26-.6-1.03v-.97c0-.75.22-1.01.59-1.01C22.94,11.70825,23.16,11.97825,23.16,12.72825Z" fill="param(fill)" stroke="param(outline)" stroke-width="param(outline-width) 0" fill-opacity="param(fill-opacity)" stroke-opacity="param(outline-opacity)" /></svg>