<svg xmlns="http://www.w3.org/2000/svg" viewBox="0 0 24 24"><rect x="11" y="6.00002" width="3" height="1" fill="param(fill)" stroke="param(outline)" stroke-width="param(outline-width) 0" fill-opacity="param(fill-opacity)" stroke-opacity="param(outline-opacity)" /><path d="M6,7.9082V9h4V4.11084l-.01117.00055A2.21406,2.21406,0,0,0,6.1925,2.66779a3.01231,3.01231,0,0,0-2.39721.71179,3.35165,3.35165,0,0,0-.74689.8714A2.20845,2.20845,0,0,0,1.47205,7.65271,3.52068,3.52068,0,0,0,0,10.77753a4.66286,4.66286,0,0,0,.25336,1.51513A3.30658,3.30658,0,0,0,0,13.5553a2.7012,2.7012,0,0,0,1.76941,2.71942,3.54734,3.54734,0,0,0,.461,2.46936,3.20332,3.20332,0,0,0,2.618,1.75433A3.08852,3.08852,0,0,0,6.60278,21.8429a2.54712,2.54712,0,0,0,3.31476-1.29114,1.83934,1.83934,0,0,0,.05036-.88611L10,19.66638V13H5v2.0918a1.5,1.5,0,1,1-1,0V12h6V10H5V7.9082a1.5,1.5,0,1,1,1,0Z" fill="param(fill)" stroke="param(outline)" stroke-width="param(outline-width) 0" fill-opacity="param(fill-opacity)" stroke-opacity="param(outline-opacity)" /><rect x="10" y="12.00002" width="3" height="1" fill="param(fill)" stroke="param(outline)" stroke-width="param(outline-width) 0" fill-opacity="param(fill-opacity)" stroke-opacity="param(outline-opacity)" /><rect x="12" y="13.00002" width="1" height="4" fill="param(fill)" stroke="param(outline)" stroke-width="param(outline-width) 0" fill-opacity="param(fill-opacity)" stroke-opacity="param(outline-opacity)" /><rect x="12" y="16.00002" width="2" height="1" fill="param(fill)" stroke="param(outline)" stroke-width="param(outline-width) 0" fill-opacity="param(fill-opacity)" stroke-opacity="param(outline-opacity)" /><path d="M24,10.77753a3.52079,3.52079,0,0,0-1.472-3.12488A2.2084,2.2084,0,0,0,20.9516,4.251a3.35165,3.35165,0,0,0-.74689-.8714,3.01231,3.01231,0,0,0-2.39721-.71179,2.21406,2.21406,0,0,0-3.79633,1.4436L14,4.11084V6h7V9.0918a1.5,1.5,0,1,1-1,0V7H14v9h3.0918a1.5,1.5,0,1,1,0,1H14v2.66638l.0321-.00073a1.83934,1.83934,0,0,0,.05036.88611,2.547,2.547,0,0,0,3.31476,1.29107,3.08833,3.08833,0,0,0,1.75433-1.34442,3.20319,3.20319,0,0,0,2.618-1.75439,3.54745,3.54745,0,0,0,.461-2.4693A2.7012,2.7012,0,0,0,24,13.5553a3.30658,3.30658,0,0,0-.25336-1.26264A4.66286,4.66286,0,0,0,24,10.77753Z" fill="param(fill)" stroke="param(outline)" stroke-width="param(outline-width) 0" fill-opacity="param(fill-opacity)" stroke-opacity="param(outline-opacity)" /><rect x="10" y="9.00002" width="2" height="1" fill="param(fill)" stroke="param(outline)" stroke-width="param(outline-width) 0" fill-opacity="param(fill-opacity)" stroke-opacity="param(outline-opacity)" /><rect x="11" y="7.00002" width="1" height="2" fill="param(fill)" stroke="param(outline)" stroke-width="param(outline-width) 0" fill-opacity="param(fill-opacity)" stroke-opacity="param(outline-opacity)" /></svg>