<svg xmlns="http://www.w3.org/2000/svg" viewBox="0 0 24 24"><path d="M6,18.75213V18H18v1.00284A1.998,1.998,0,0,1,15.99958,21H8.00042A1.99626,1.99626,0,0,1,6,19.00284ZM15,3.99178a.98562.98562,0,0,0-.29226-.70128A.99774.99774,0,0,0,14.00213,3H9.99787a.99819.99819,0,0,0-.91946.60575A.98347.98347,0,0,0,9,3.99178V5h6V3.99178ZM16.245,8.75l1.25167,2.75,1.25166,2.75L20,17H4l1.25-2.75L6.5,11.5,7.75,8.75,8.99994,6h5.9934Zm-3.45652,4.10283A2.00651,2.00651,0,1,0,12.01,13.01,2.00329,2.00329,0,0,0,12.78848,12.85283Zm7.70695.77217V15.5l.87614-.875.87614-.875.87615-.875L24,12l-.87614-.875-.87615-.875-.87614-.875L20.49543,8.5V11H19v2h1.49543ZM3.51248,13H5V11H3.51248V8.5l-.87812.875-.87812.875-.87812.875L0,12l.87812.875.87812.875.87812.875.87812.875V13Z" fill="param(fill)" stroke="param(outline)" stroke-width="param(outline-width) 0" fill-opacity="param(fill-opacity)" stroke-opacity="param(outline-opacity)" /></svg>