<svg xmlns="http://www.w3.org/2000/svg" viewBox="0 0 24 24"><polygon points="6 19 11 19 11 23 8.5 21.5 6 23 6 19" fill="param(fill)" stroke="param(outline)" stroke-width="param(outline-width) 0" fill-opacity="param(fill-opacity)" stroke-opacity="param(outline-opacity)" /><path d="M20,1H12V23l2.5-1.5L17,23V21h3a2,2,0,0,0,2-2V3A2,2,0,0,0,20,1ZM14,5h2V7H14Zm0,5h2v2H14Zm0,5h2v2H14Z" fill="param(fill)" stroke="param(outline)" stroke-width="param(outline-width) 0" fill-opacity="param(fill-opacity)" stroke-opacity="param(outline-opacity)" /><path d="M4,1A2.00588,2.00588,0,0,0,2,3V19a2.006,2.006,0,0,0,2,2V3h7V1Z" fill="param(fill)" stroke="param(outline)" stroke-width="param(outline-width) 0" fill-opacity="param(fill-opacity)" stroke-opacity="param(outline-opacity)" /><rect x="6" y="5" width="2" height="2" fill="param(fill)" stroke="param(outline)" stroke-width="param(outline-width) 0" fill-opacity="param(fill-opacity)" stroke-opacity="param(outline-opacity)" /><rect x="6" y="10" width="2" height="2" fill="param(fill)" stroke="param(outline)" stroke-width="param(outline-width) 0" fill-opacity="param(fill-opacity)" stroke-opacity="param(outline-opacity)" /><rect x="6" y="15" width="2" height="2" fill="param(fill)" stroke="param(outline)" stroke-width="param(outline-width) 0" fill-opacity="param(fill-opacity)" stroke-opacity="param(outline-opacity)" /></svg>