<svg xmlns="http://www.w3.org/2000/svg" viewBox="0 0 24 24"><rect x="21" y="10" width="2" height="4" fill="param(fill)" stroke="param(outline)" stroke-width="param(outline-width) 0" fill-opacity="param(fill-opacity)" stroke-opacity="param(outline-opacity)" /><rect x="1" y="10" width="2" height="4" fill="param(fill)" stroke="param(outline)" stroke-width="param(outline-width) 0" fill-opacity="param(fill-opacity)" stroke-opacity="param(outline-opacity)" /><path d="M18,9a2,2,0,0,0-2-2H8A2,2,0,0,0,6,9a2,2,0,0,0-2,2v2a2,2,0,0,0,2,2,2,2,0,0,0,2,2H9.02765l1.60242-2.77551a1.58186,1.58186,0,0,1,2.73986,0L14.97235,17H16a2,2,0,0,0,2-2,2,2,0,0,0,2-2V11A2,2,0,0,0,18,9Zm-1,3H7V10H17Z" fill="param(fill)" stroke="param(outline)" stroke-width="param(outline-width) 0" fill-opacity="param(fill-opacity)" stroke-opacity="param(outline-opacity)" /></svg>